<?xml version="1.0" encoding="UTF-8" standalone="no"?>
<svg
   xmlns:dc="http://purl.org/dc/elements/1.1/"
   xmlns:cc="http://creativecommons.org/ns#"
   xmlns:rdf="http://www.w3.org/1999/02/22-rdf-syntax-ns#"
   xmlns:svg="http://www.w3.org/2000/svg"
   xmlns="http://www.w3.org/2000/svg"
   xmlns:sodipodi="http://sodipodi.sourceforge.net/DTD/sodipodi-0.dtd"
   xmlns:inkscape="http://www.inkscape.org/namespaces/inkscape"
   width="210mm"
   height="297mm"
   viewBox="0 0 793.70079 1122.5197"
   version="1.1"
   xml:space="preserve"
   style="clip-rule:evenodd;fill-rule:evenodd;stroke-linejoin:round;stroke-miterlimit:2"
   id="svg8491"
   sodipodi:docname="Favicon_02.svg"
   inkscape:version="0.92.3 (2405546, 2018-03-11)"><metadata
   id="metadata8497"><rdf:RDF><cc:Work
       rdf:about=""><dc:format>image/svg+xml</dc:format><dc:type
         rdf:resource="http://purl.org/dc/dcmitype/StillImage" /><dc:title></dc:title><cc:license
         rdf:resource="http://creativecommons.org/licenses/by-nc/4.0/" /></cc:Work><cc:License
       rdf:about="http://creativecommons.org/licenses/by-nc/4.0/"><cc:permits
         rdf:resource="http://creativecommons.org/ns#Reproduction" /><cc:permits
         rdf:resource="http://creativecommons.org/ns#Distribution" /><cc:requires
         rdf:resource="http://creativecommons.org/ns#Notice" /><cc:requires
         rdf:resource="http://creativecommons.org/ns#Attribution" /><cc:prohibits
         rdf:resource="http://creativecommons.org/ns#CommercialUse" /><cc:permits
         rdf:resource="http://creativecommons.org/ns#DerivativeWorks" /></cc:License></rdf:RDF></metadata><defs
   id="defs8495" /><sodipodi:namedview
   pagecolor="#ffffff"
   bordercolor="#666666"
   borderopacity="1"
   objecttolerance="10"
   gridtolerance="10"
   guidetolerance="10"
   inkscape:pageopacity="0"
   inkscape:pageshadow="2"
   inkscape:window-width="1920"
   inkscape:window-height="1132"
   id="namedview8493"
   showgrid="false"
   units="mm"
   inkscape:pagecheckerboard="false"
   inkscape:zoom="1.84375"
   inkscape:cx="256"
   inkscape:cy="256"
   inkscape:window-x="0"
   inkscape:window-y="39"
   inkscape:window-maximized="1"
   inkscape:current-layer="svg8491" />
    <g
   transform="matrix(7.96204,0,0,8.02928,-332.445,513.56079)"
   id="g8452">
        <path
   d="m 74.146,21.474 c 8.107,0.077 15.948,4.846 19.734,11.915 3.555,6.635 3.481,15.007 -0.196,21.581 C 89.193,62.999 79.411,67.855 70.012,66.174 61.351,64.626 54.006,57.584 52.041,49.083 50.292,41.514 52.78,33.107 58.451,27.7 62.6,23.744 68.266,21.455 74.146,21.474 Z m -0.285,1.053 c -7.746,0.074 -15.195,4.636 -18.793,11.353 -3.389,6.326 -3.319,14.315 0.187,20.582 4.256,7.61 13.532,12.287 22.541,10.676 8.241,-1.474 15.245,-8.184 17.118,-16.289 1.669,-7.221 -0.705,-15.238 -6.111,-20.393 -3.952,-3.768 -9.342,-5.947 -14.942,-5.929 z"
   style="fill:#dc0067"
   id="path8450"
   inkscape:connector-curvature="0" />
    </g>
    <g
   transform="matrix(7.90253,0,0,7.91208,-328.789,518.71689)"
   id="g8456">
        <path
   d="m 74.206,12.109 c 14.417,0.137 28.019,11.058 31.026,25.28 2.249,10.639 -1.377,22.311 -9.341,29.814 C 87.089,75.496 73.357,78.202 61.928,73.528 52.31,69.595 44.909,60.741 42.768,50.611 40.534,40.042 44.101,28.431 51.97,20.928 c 5.787,-5.517 13.666,-8.742 21.824,-8.819 0.137,-10e-4 0.275,-10e-4 0.412,0 z m -0.375,5.783 c -11.856,0.113 -22.891,9.066 -25.346,20.682 -1.831,8.659 1.09,18.185 7.536,24.331 7.094,6.763 18.212,9.071 27.527,5.396 C 91.51,65.159 97.67,57.895 99.481,49.584 101.974,38.145 95.739,25.342 85.004,20.326 81.528,18.702 77.706,17.88 73.831,17.892 Z"
   style="fill:#dc0067"
   id="path8454"
   inkscape:connector-curvature="0" />
    </g>
    <g
   id="g8475"
   transform="translate(0,610.51969)">
        <clipPath
   id="_clip1">
            <path
   d="m 254.665,49.764 c -93.694,0.892 -180.897,71.725 -200.302,163.637 -14.464,68.506 8.617,143.876 59.558,192.506 56.055,53.511 143.921,71.773 217.532,42.69 C 394.374,423.738 443.052,366.264 457.364,300.513 477.066,210.001 427.793,108.703 342.958,69.018 315.487,56.168 285.286,49.667 254.665,49.764 Z"
   id="path8458"
   inkscape:connector-curvature="0" />
        </clipPath>
        <g
   clip-path="url(#_clip1)"
   id="g8473">
            <g
   transform="matrix(0.682363,0,0,0.682363,-43.2932,200.459)"
   id="g8463">
                <path
   d="M 825,694.5 H 114 l -2.114,-0.422 -1.789,-1.202 -1.189,-1.798 -0.408,-2.116 1,-144 c 0.085,-0.538 0.091,-1.095 0.254,-1.615 0.445,-1.412 0.857,-1.617 1.835,-2.662 L 276.5,410.337 V 354 l 0.226,-1.561 c 0.658,-1.427 0.664,-1.437 1.699,-2.619 l 74.075,-63.353 0.22,-2.008 c 0.641,-1.413 0.647,-1.422 1.658,-2.598 l 33.587,-29.389 c -0.2,-0.157 -0.398,-0.316 -0.595,-0.477 -2.681,-2.199 -5.163,-4.739 -6.884,-7.774 0,0 -6.085,0.495 -10.665,-2.141 -4.691,-2.699 -7.317,-8.074 -8.157,-13.527 -0.172,-1.119 -0.382,-1.352 -0.521,-1.832 -2.891,-10.157 -3.236,-20.933 -3.642,-31.595 L 356.5,67.043 l 0.45,-2.222 1.308,-1.851 14,-13 1.941,-1.167 2.248,-0.285 2.171,0.645 1.882,1.783 V 44 l 0.466,-2.215 1.318,-1.839 12,-11 1.92,-1.145 2.218,-0.285 8.972,0.69 0.499,-1.249 1.261,-1.888 1.915,-1.219 2.245,-0.341 c 11.666,0.667 23.333,1.333 35,2 2.038,0.5 3.926,1.457 4.726,3.29 0.268,0.614 0.303,1.304 0.455,1.957 l 1.789,40.27 12.408,1.306 3.709,-2.318 -0.898,-27.837 0.347,-2.108 3,-8 0.915,-1.578 c 0.46,-0.397 0.861,-0.877 1.38,-1.192 1.419,-0.862 1.928,-0.686 3.517,-0.759 l 33,4 c 1.319,0.421 2.68,0.886 3.552,1.926 0.93,1.108 1.312,2.72 1.75,4.034 H 520 c 2.156,0.417 4.155,1.341 5.011,3.232 0.287,0.634 0.322,1.354 0.484,2.031 l 6.006,139.137 c -0.143,20.481 -1.537,42.003 -11.666,59.538 -1.785,3.09 -3.953,5.997 -6.657,8.337 0,0 26.369,2.752 26.369,2.752 l 1.899,0.547 c 1.376,1.027 1.964,1.176 2.646,2.848 0.249,0.609 0.271,1.289 0.406,1.933 l 0.869,33.028 76.039,5.632 1.93,0.506 c 0.541,0.387 1.161,0.682 1.623,1.161 1.266,1.313 1.159,1.92 1.537,3.611 l 4.885,129.947 3.283,1.876 184.778,14.902 c 2.021,0.545 3.88,1.539 4.641,3.382 0.255,0.617 0.277,1.306 0.415,1.959 l 6,234 -0.377,2.148 -1.182,1.832 -1.802,1.229 z m -351.5,-447.577 5.793,0.579 c -0.984,-1.018 -1.291,-1.423 -1.868,-2.198 -0.908,-1.219 -1.989,-3.105 -1.989,-3.105 l -1.936,-0.176 z"
   id="path8461"
   inkscape:connector-curvature="0" />
            </g>
            <g
   transform="matrix(0.682363,0,0,0.682363,-43.2932,200.459)"
   id="g8467">
                <path
   d="m 417,33 28,2 5,131 c 1.439,14.012 6.196,22.184 21,23 9.612,0.53 16.098,-8.116 16,-19 l -4,-131 27,3 5,130 c -1.174,42.645 -27.279,47.734 -43,47 -36.613,-1.708 -51.063,-30.29 -51,-56 z"
   style="fill:#ffffff"
   id="path8465"
   inkscape:connector-curvature="0" />
            </g>
            <g
   transform="matrix(0.682363,0,0,0.682363,-43.2932,200.459)"
   id="g8471">
                <path
   d="m 387,46 10,-9 2,130 c 0.296,35.701 -4.568,59.657 -19,69 -9.159,5.93 -14.625,-8.334 -16,-38 l -1,-129 11,-10 1,130 c 0.249,7.595 0.751,17.022 4,16 3.539,-1.113 7.819,-10.41 8,-28 z"
   style="fill:#ffffff"
   id="path8469"
   inkscape:connector-curvature="0" />
            </g>
        </g>
    </g>
    <g
   transform="matrix(0.126795,0,0,0.126795,150.818,675.30309)"
   id="g8489">
        <g
   transform="scale(4.16667)"
   id="g8479">
            <path
   d="m 181.994,81.143 c 71.231,-5.129 144.114,21.519 194.947,71.711 6.661,6.859 5.792,18.855 -1.231,25.137 -6.461,7.609 -19.379,7.743 -26.039,0.332 -43.496,-41.867 -104.893,-64.509 -165.19,-60.004 -50.082,3.225 -98.605,24.795 -134.947,59.353 -3.231,3.302 -7.366,6.012 -12.116,6.248 -11.906,1.395 -22.917,-11.051 -20.347,-22.692 0.722,-4.183 3.406,-7.664 6.481,-10.449 42.552,-40.742 99.677,-65.762 158.442,-69.636 z"
   style="fill:#dc0067;fill-rule:nonzero"
   id="path8477"
   inkscape:connector-curvature="0" />
        </g>
        <g
   transform="scale(4.16667)"
   id="g8483">
            <path
   d="m 180.205,142.995 c 54.57,-5.938 111.235,14.18 149.85,53.172 6.036,6.893 5.283,18.164 -1.42,24.359 -6.114,7.484 -18.432,8.319 -25.365,1.536 -24.729,-24.376 -58.155,-39.848 -92.821,-42.387 -42.088,-3.489 -85.094,12.48 -115.063,42.139 -6.912,7.304 -19.788,6.473 -26.01,-1.296 -6.702,-6.329 -7.26,-17.905 -0.82,-24.61 29.703,-29.721 69.87,-48.628 111.649,-52.913 z"
   style="fill:#ffb400;fill-rule:nonzero"
   id="path8481"
   inkscape:connector-curvature="0" />
        </g>
        <g
   transform="scale(4.16667)"
   id="g8487">
            <path
   d="m 188.316,203.912 c 34.437,-3.42 70.043,9.769 93.999,34.708 6.568,6.827 5.807,18.582 -1.107,24.904 -6.27,7.572 -18.854,8.087 -25.677,0.983 -13.51,-13.867 -32.218,-22.629 -51.585,-23.683 -21.985,-1.568 -44.234,7.116 -59.847,22.567 -3.839,4.315 -9.541,6.96 -15.374,6.281 -13.561,-0.955 -22.968,-19.048 -13.629,-29.902 18.85,-20.448 45.635,-33.115 73.22,-35.858 z"
   style="fill:#ffb400;fill-rule:nonzero"
   id="path8485"
   inkscape:connector-curvature="0" />
        </g>
    </g>
</svg>