<?xml version="1.0" encoding="UTF-8" standalone="no"?>
<svg
   xmlns:dc="http://purl.org/dc/elements/1.1/"
   xmlns:cc="http://creativecommons.org/ns#"
   xmlns:rdf="http://www.w3.org/1999/02/22-rdf-syntax-ns#"
   xmlns:svg="http://www.w3.org/2000/svg"
   xmlns="http://www.w3.org/2000/svg"
   xmlns:sodipodi="http://sodipodi.sourceforge.net/DTD/sodipodi-0.dtd"
   xmlns:inkscape="http://www.inkscape.org/namespaces/inkscape"
   width="100%"
   height="100%"
   viewBox="0 0 512 512"
   version="1.1"
   xml:space="preserve"
   style="fill-rule:evenodd;clip-rule:evenodd;stroke-linejoin:round;stroke-miterlimit:2;"
   id="svg43"
   sodipodi:docname="Favicon_02.svg"
   inkscape:version="0.92.3 (2405546, 2018-03-11)"><metadata
   id="metadata49"><rdf:RDF><cc:Work
       rdf:about=""><dc:format>image/svg+xml</dc:format><dc:type
         rdf:resource="http://purl.org/dc/dcmitype/StillImage" /><dc:title></dc:title><cc:license
         rdf:resource="http://creativecommons.org/licenses/by-nc/4.0/" /></cc:Work><cc:License
       rdf:about="http://creativecommons.org/licenses/by-nc/4.0/"><cc:permits
         rdf:resource="http://creativecommons.org/ns#Reproduction" /><cc:permits
         rdf:resource="http://creativecommons.org/ns#Distribution" /><cc:requires
         rdf:resource="http://creativecommons.org/ns#Notice" /><cc:requires
         rdf:resource="http://creativecommons.org/ns#Attribution" /><cc:prohibits
         rdf:resource="http://creativecommons.org/ns#CommercialUse" /><cc:permits
         rdf:resource="http://creativecommons.org/ns#DerivativeWorks" /></cc:License></rdf:RDF></metadata><defs
   id="defs47" /><sodipodi:namedview
   pagecolor="#ffffff"
   bordercolor="#666666"
   borderopacity="1"
   objecttolerance="10"
   gridtolerance="10"
   guidetolerance="10"
   inkscape:pageopacity="0"
   inkscape:pageshadow="2"
   inkscape:window-width="1451"
   inkscape:window-height="942"
   id="namedview45"
   showgrid="false"
   inkscape:zoom="1.6984692"
   inkscape:cx="3.2264233"
   inkscape:cy="256"
   inkscape:window-x="0"
   inkscape:window-y="39"
   inkscape:window-maximized="0"
   inkscape:current-layer="svg43" />
    <g
   transform="matrix(7.96204,0,0,8.02928,-332.445,-96.9589)"
   id="g4">
        <path
   d="M74.146,21.474C82.253,21.551 90.094,26.32 93.88,33.389C97.435,40.024 97.361,48.396 93.684,54.97C89.193,62.999 79.411,67.855 70.012,66.174C61.351,64.626 54.006,57.584 52.041,49.083C50.292,41.514 52.78,33.107 58.451,27.7C62.6,23.744 68.266,21.455 74.146,21.474ZM73.861,22.527C66.115,22.601 58.666,27.163 55.068,33.88C51.679,40.206 51.749,48.195 55.255,54.462C59.511,62.072 68.787,66.749 77.796,65.138C86.037,63.664 93.041,56.954 94.914,48.849C96.583,41.628 94.209,33.611 88.803,28.456C84.851,24.688 79.461,22.509 73.861,22.527Z"
   style="fill:rgb(220,0,103);"
   id="path2" />
    </g>
    <g
   transform="matrix(7.90253,0,0,7.91208,-328.789,-91.8028)"
   id="g8">
        <path
   d="M74.206,12.109C88.623,12.246 102.225,23.167 105.232,37.389C107.481,48.028 103.855,59.7 95.891,67.203C87.089,75.496 73.357,78.202 61.928,73.528C52.31,69.595 44.909,60.741 42.768,50.611C40.534,40.042 44.101,28.431 51.97,20.928C57.757,15.411 65.636,12.186 73.794,12.109C73.931,12.108 74.069,12.108 74.206,12.109ZM73.831,17.892C61.975,18.005 50.94,26.958 48.485,38.574C46.654,47.233 49.575,56.759 56.021,62.905C63.115,69.668 74.233,71.976 83.548,68.301C91.51,65.159 97.67,57.895 99.481,49.584C101.974,38.145 95.739,25.342 85.004,20.326C81.528,18.702 77.706,17.88 73.831,17.892Z"
   style="fill:rgb(220,0,103);"
   id="path6" />
    </g>
    <g
   id="g27">
        <clipPath
   id="_clip1">
            <path
   d="M254.665,49.764C160.971,50.656 73.768,121.489 54.363,213.401C39.899,281.907 62.98,357.277 113.921,405.907C169.976,459.418 257.842,477.68 331.453,448.597C394.374,423.738 443.052,366.264 457.364,300.513C477.066,210.001 427.793,108.703 342.958,69.018C315.487,56.168 285.286,49.667 254.665,49.764Z"
   id="path10" />
        </clipPath>
        <g
   clip-path="url(#_clip1)"
   id="g25">
            <g
   transform="matrix(0.682363,0,0,0.682363,-43.2932,200.459)"
   id="g15">
                <path
   d="M825,694.5L114,694.5L111.886,694.078L110.097,692.876L108.908,691.078L108.5,688.962L109.5,544.962C109.585,544.424 109.591,543.867 109.754,543.347C110.199,541.935 110.611,541.73 111.589,540.685L276.5,410.337L276.5,354L276.726,352.439C277.384,351.012 277.39,351.002 278.425,349.82L352.5,286.467L352.72,284.459C353.361,283.046 353.367,283.037 354.378,281.861L387.965,252.472C387.765,252.315 387.567,252.156 387.37,251.995C384.689,249.796 382.207,247.256 380.486,244.221C380.486,244.221 374.401,244.716 369.821,242.08C365.13,239.381 362.504,234.006 361.664,228.553C361.492,227.434 361.282,227.201 361.143,226.721C358.252,216.564 357.907,205.788 357.501,195.126L356.5,67.043L356.95,64.821L358.258,62.97L372.258,49.97L374.199,48.803L376.447,48.518L378.618,49.163L380.5,50.946L380.5,44L380.966,41.785L382.284,39.946L394.284,28.946L396.204,27.801L398.422,27.516L407.394,28.206L407.893,26.957L409.154,25.069L411.069,23.85L413.314,23.509C424.98,24.176 436.647,24.842 448.314,25.509C450.352,26.009 452.24,26.966 453.04,28.799C453.308,29.413 453.343,30.103 453.495,30.756L455.284,71.026L467.692,72.332L471.401,70.014L470.503,42.177L470.85,40.069L473.85,32.069L474.765,30.491C475.225,30.094 475.626,29.614 476.145,29.299C477.564,28.437 478.073,28.613 479.662,28.54L512.662,32.54C513.981,32.961 515.342,33.426 516.214,34.466C517.144,35.574 517.526,37.186 517.964,38.5L520,38.5C522.156,38.917 524.155,39.841 525.011,41.732C525.298,42.366 525.333,43.086 525.495,43.763L531.501,182.9C531.358,203.381 529.964,224.903 519.835,242.438C518.05,245.528 515.882,248.435 513.178,250.775C513.178,250.775 539.547,253.527 539.547,253.527L541.446,254.074C542.822,255.101 543.41,255.25 544.092,256.922C544.341,257.531 544.363,258.211 544.498,258.855L545.367,291.883L621.406,297.515L623.336,298.021C623.877,298.408 624.497,298.703 624.959,299.182C626.225,300.495 626.118,301.102 626.496,302.793L631.381,432.74L634.664,434.616L819.442,449.518C821.463,450.063 823.322,451.057 824.083,452.9C824.338,453.517 824.36,454.206 824.498,454.859L830.498,688.859L830.121,691.007L828.939,692.839L827.137,694.068L825,694.5ZM473.5,246.923L479.293,247.502C478.309,246.484 478.002,246.079 477.425,245.304C476.517,244.085 475.436,242.199 475.436,242.199L473.5,242.023L473.5,246.923Z"
   id="path13" />
            </g>
            <g
   transform="matrix(0.682363,0,0,0.682363,-43.2932,200.459)"
   id="g19">
                <path
   d="M417,33L445,35L450,166C451.439,180.012 456.196,188.184 471,189C480.612,189.53 487.098,180.884 487,170L483,39L510,42L515,172C513.826,214.645 487.721,219.734 472,219C435.387,217.292 420.937,188.71 421,163L417,33Z"
   style="fill:white;"
   id="path17" />
            </g>
            <g
   transform="matrix(0.682363,0,0,0.682363,-43.2932,200.459)"
   id="g23">
                <path
   d="M387,46L397,37L399,167C399.296,202.701 394.432,226.657 380,236C370.841,241.93 365.375,227.666 364,198L363,69L374,59L375,189C375.249,196.595 375.751,206.022 379,205C382.539,203.887 386.819,194.59 387,177L387,46Z"
   style="fill:white;"
   id="path21" />
            </g>
        </g>
    </g>
    <g
   transform="matrix(0.126795,0,0,0.126795,150.818,64.7834)"
   id="g41">
        <g
   transform="matrix(4.16667,0,0,4.16667,0,0)"
   id="g31">
            <path
   d="M181.994,81.143C253.225,76.014 326.108,102.662 376.941,152.854C383.602,159.713 382.733,171.709 375.71,177.991C369.249,185.6 356.331,185.734 349.671,178.323C306.175,136.456 244.778,113.814 184.481,118.319C134.399,121.544 85.876,143.114 49.534,177.672C46.303,180.974 42.168,183.684 37.418,183.92C25.512,185.315 14.501,172.869 17.071,161.228C17.793,157.045 20.477,153.564 23.552,150.779C66.104,110.037 123.229,85.017 181.994,81.143Z"
   style="fill:rgb(220,0,103);fill-rule:nonzero;"
   id="path29" />
        </g>
        <g
   transform="matrix(4.16667,0,0,4.16667,0,0)"
   id="g35">
            <path
   d="M180.205,142.995C234.775,137.057 291.44,157.175 330.055,196.167C336.091,203.06 335.338,214.331 328.635,220.526C322.521,228.01 310.203,228.845 303.27,222.062C278.541,197.686 245.115,182.214 210.449,179.675C168.361,176.186 125.355,192.155 95.386,221.814C88.474,229.118 75.598,228.287 69.376,220.518C62.674,214.189 62.116,202.613 68.556,195.908C98.259,166.187 138.426,147.28 180.205,142.995Z"
   style="fill:rgb(255,180,0);fill-rule:nonzero;"
   id="path33" />
        </g>
        <g
   transform="matrix(4.16667,0,0,4.16667,0,0)"
   id="g39">
            <path
   d="M188.316,203.912C222.753,200.492 258.359,213.681 282.315,238.62C288.883,245.447 288.122,257.202 281.208,263.524C274.938,271.096 262.354,271.611 255.531,264.507C242.021,250.64 223.313,241.878 203.946,240.824C181.961,239.256 159.712,247.94 144.099,263.391C140.26,267.706 134.558,270.351 128.725,269.672C115.164,268.717 105.757,250.624 115.096,239.77C133.946,219.322 160.731,206.655 188.316,203.912Z"
   style="fill:rgb(255,180,0);fill-rule:nonzero;"
   id="path37" />
        </g>
    </g>
</svg>