<?xml version="1.0" standalone="no"?>
<!DOCTYPE svg PUBLIC "-//W3C//DTD SVG 20010904//EN"
 "http://www.w3.org/TR/2001/REC-SVG-20010904/DTD/svg10.dtd">
<svg version="1.0" xmlns="http://www.w3.org/2000/svg"
 width="192.000000pt" height="192.000000pt" viewBox="0 0 192.000000 192.000000"
 preserveAspectRatio="xMidYMid meet">
<metadata>
Created by potrace 1.11, written by Peter Selinger 2001-2013
</metadata>
<g transform="translate(0.000000,192.000000) scale(0.100000,-0.100000)"
fill="#000000" stroke="none">
<path d="M850 1899 c-400 -45 -728 -349 -815 -754 -23 -102 -23 -284 -1 -383
68 -310 313 -593 602 -692 401 -139 848 -1 1090 336 192 268 232 643 100 929
-142 307 -443 527 -774 565 -96 11 -96 11 -202 -1z m268 -185 c302 -62 537
-308 597 -625 46 -244 -28 -486 -205 -667 -63 -65 -65 -66 -68 -39 -3 24 -7
27 -43 27 l-40 0 61 57 c118 109 191 253 209 413 23 211 -43 404 -189 550 -87
87 -172 140 -285 177 -68 22 -98 26 -195 26 -97 0 -127 -4 -195 -26 -275 -91
-456 -327 -472 -617 -13 -235 99 -459 294 -591 27 -18 50 -34 52 -36 9 -7 -53
-63 -69 -63 -28 0 -146 96 -200 162 -65 81 -123 193 -152 294 -33 115 -33 307
0 414 67 213 213 383 417 483 146 73 321 95 483 61z m12 -135 c280 -77 470
-331 470 -629 0 -171 -60 -310 -191 -443 -86 -87 -88 -88 -130 -85 l-44 3 -3
46 c-3 45 -5 47 -38 53 l-34 7 15 30 c23 43 27 131 18 327 -10 194 -8 191 -88
203 -52 8 -65 -4 -65 -57 0 -37 -3 -44 -20 -44 -18 0 -20 7 -20 54 0 60 -6 66
-71 66 -52 0 -109 -25 -116 -50 -3 -11 -10 -20 -16 -20 -6 0 -19 -7 -29 -17
-16 -14 -18 -35 -18 -207 0 -214 8 -263 45 -272 14 -3 25 -11 25 -17 0 -14
-131 -137 -146 -137 -24 0 -136 84 -188 141 -62 69 -119 176 -142 269 -22 85
-22 236 1 320 58 225 237 403 465 464 83 22 231 20 320 -5z m-156 -515 c3 -9
6 -68 7 -132 2 -182 9 -223 41 -242 25 -13 29 -13 45 2 15 16 17 38 14 196
l-3 179 30 -5 30 -4 7 -112 c4 -62 6 -152 4 -200 -4 -82 -6 -89 -32 -112 -35
-30 -89 -32 -134 -4 -56 34 -64 62 -70 266 l-6 184 30 0 c19 0 33 -6 37 -16z
m-119 -370 c-4 -44 -14 -83 -26 -104 -19 -31 -22 -32 -37 -16 -15 14 -17 46
-20 218 -2 134 0 204 7 211 8 8 11 -27 11 -123 0 -74 3 -159 7 -189 5 -48 8
-52 20 -36 10 14 13 65 13 205 0 103 3 190 8 194 10 11 24 -275 17 -360z"/>
<path d="M880 1514 c-86 -16 -220 -83 -263 -132 -22 -24 -19 -50 5 -66 13 -8
25 -4 55 20 93 73 178 104 283 104 105 0 190 -31 283 -104 30 -24 42 -28 55
-20 24 16 27 42 5 66 -28 32 -112 83 -178 107 -58 22 -190 35 -245 25z"/>
</g>
</svg>
